<svg width="423" height="84" viewBox="0 0 423 84" fill="none" xmlns="http://www.w3.org/2000/svg">
<path d="M-0.000228882 82.6484L29.2247 0.818543H55.1765L84.1677 82.6484H61.0215L55.8779 67.1008H27.3543L22.3276 82.6484H-0.000228882ZM32.8486 50.1503H50.2667L41.4992 23.614L32.8486 50.1503ZM88.5459 19.7563C91.8191 13.5606 96.4951 8.76773 102.574 5.26074C108.653 1.87064 115.9 0.117146 124.317 0.117146C130.864 0.117146 136.826 1.51995 142.086 4.09174C147.23 6.78043 151.438 10.5212 154.594 15.1972C157.634 19.8732 159.504 25.2506 159.972 31.3294H138.462C137.644 27.3548 135.89 24.0816 133.202 21.6267C130.513 19.1718 127.123 17.8859 123.148 17.8859C117.537 17.8859 113.212 20.107 110.172 24.4323C107.133 28.8745 105.613 34.6026 105.613 41.7335C105.613 48.9813 107.133 54.7094 110.172 59.0347C113.212 63.4769 117.537 65.5811 123.148 65.5811C127.123 65.5811 130.513 64.4121 133.202 61.9572C135.89 59.5023 137.644 56.2291 138.462 52.1376H159.972C159.504 58.2164 157.634 63.7107 154.594 68.3867C151.438 73.0627 147.23 76.8034 142.086 79.3752C136.826 82.0639 130.864 83.3498 124.317 83.3498C115.9 83.3498 108.653 81.7132 102.574 78.2062C96.4951 74.8161 91.8191 70.0233 88.5459 63.7107C85.2727 57.515 83.6361 50.1503 83.6361 41.7335C83.6361 33.3167 85.2727 26.0689 88.5459 19.7563ZM195.774 42.4349C199.281 39.6293 201.97 37.0575 203.606 34.7195C205.243 32.3815 206.061 29.9266 206.061 27.3548C206.061 24.0816 205.009 21.5098 203.139 19.7563C201.268 18.0028 198.697 17.0676 195.54 17.0676C192.501 17.0676 190.046 18.2366 188.176 20.4577C186.188 22.6788 185.253 25.6013 185.253 29.2252V30.3942H164.445V28.0562C164.445 22.9126 165.731 18.1197 168.303 13.9113C170.874 9.70294 174.498 6.31283 179.174 3.74104C183.85 1.28614 189.345 0.000247688 195.54 0.000247688C205.594 0.000247688 213.309 2.45514 218.687 7.24804C224.064 12.1578 226.869 18.5873 226.869 26.5365C226.869 32.1477 225.467 37.0575 222.895 41.0321C220.206 45.1236 215.998 49.4489 210.387 53.8911L195.423 65.698H227.22V82.6484H165.146V67.1008L195.774 42.4349ZM254.935 39.4524H260.55L270.67 75.7371L281.284 39.4524H286.714L296.958 75.7371L307.14 39.4524H312.694L300.044 82.6484H293.626L283.752 48.4002L273.941 82.6484H267.523L254.935 39.4524ZM344.13 78.0203V82.6484H341.353C339.317 82.6484 337.897 82.2782 337.034 81.4143C336.17 80.6121 335.676 79.3779 335.676 77.7735C333.208 81.2908 329.69 83.0187 325.124 83.0187C321.606 83.0187 318.768 82.2165 316.67 80.5503C314.572 78.9459 313.523 76.6627 313.523 73.8241C313.523 70.677 314.572 68.2703 316.731 66.5425C318.891 64.8764 322.038 64.0124 326.173 64.0124H335.429V61.8526C335.429 59.8163 334.689 58.2118 333.331 57.0394C331.973 55.9286 330.06 55.3115 327.592 55.3115C325.371 55.3115 323.581 55.8052 322.162 56.7925C320.742 57.7799 319.879 59.014 319.57 60.6185H314.51C314.88 57.533 316.238 55.1264 318.583 53.3986C320.928 51.6707 324.013 50.8068 327.839 50.8068C331.85 50.8068 334.935 51.7941 337.157 53.7688C339.378 55.7435 340.489 58.5204 340.489 62.1612V75.7371C340.489 77.2798 341.168 78.0203 342.587 78.0203H344.13ZM335.429 68.2703H325.679C320.989 68.2703 318.644 70.0599 318.644 73.5156C318.644 75.12 319.261 76.3542 320.496 77.2798C321.73 78.2671 323.396 78.6991 325.494 78.6991C328.579 78.6991 330.986 77.8969 332.776 76.2925C334.503 74.688 335.429 72.5282 335.429 69.813V68.2703ZM348.02 39.4524H353.08V82.6484H348.02V39.4524ZM360.012 39.4524H365.072V82.6484H360.012V39.4524ZM372.745 58.4587C373.979 56.052 375.769 54.2008 378.052 52.8432C380.273 51.4856 382.865 50.8068 385.827 50.8068C388.666 50.8068 391.258 51.4239 393.479 52.5964C395.701 53.8305 397.428 55.5584 398.724 57.7799C399.958 60.0631 400.637 62.7166 400.761 65.7403C400.761 66.234 400.699 66.9127 400.637 67.9001H376.201V68.332C376.262 71.4175 377.188 73.8858 379.039 75.7371C380.829 77.5883 383.174 78.514 386.136 78.514C388.357 78.514 390.27 77.9586 391.875 76.8478C393.479 75.7371 394.528 74.1327 395.083 72.0963H400.205C399.588 75.3051 398.045 77.9586 395.577 79.995C393.109 82.0314 390.085 83.0187 386.506 83.0187C383.359 83.0187 380.644 82.4016 378.299 81.044C375.954 79.6864 374.103 77.8352 372.807 75.3668C371.511 72.8985 370.894 70.1216 370.894 66.9127C370.894 63.7039 371.511 60.927 372.745 58.4587ZM395.515 63.7039C395.269 61.0504 394.22 58.9523 392.492 57.4713C390.764 55.9903 388.542 55.2498 385.889 55.2498C383.482 55.2498 381.384 56.052 379.595 57.5947C377.743 59.1992 376.756 61.2356 376.509 63.7039H395.515ZM408.271 55.8052H402.594V51.1771H408.271V42.3527H413.331V51.1771H421.292V55.8052H413.331V74.3795C413.331 75.7371 413.578 76.6627 414.072 77.2181C414.566 77.7735 415.491 78.0203 416.787 78.0203H422.279V82.6484H416.478C413.516 82.6484 411.357 82.0314 410.122 80.6738C408.888 79.3779 408.271 77.2798 408.271 74.4412V55.8052Z" fill="white"/>
</svg>
