<svg width="773" height="174" viewBox="0 0 773 174" fill="none" xmlns="http://www.w3.org/2000/svg">
<path d="M32.4116 0.00035429H38.9563L45.2582 11.9023H45.5281L51.8299 0.00035429H58.3746L48.2944 17.8668V27.6367H42.4918V17.8668L32.4116 0.00035429ZM66.4814 28.0415C64.3852 28.0415 62.5725 27.5962 61.0431 26.7056C59.5228 25.806 58.3488 24.5555 57.5211 22.9542C56.6935 21.3439 56.2797 19.4772 56.2797 17.354C56.2797 15.2129 56.6935 13.3417 57.5211 11.7404C58.3488 10.1301 59.5228 8.87962 61.0431 7.98899C62.5725 7.08937 64.3852 6.63956 66.4814 6.63956C68.5775 6.63956 70.3857 7.08937 71.9061 7.98899C73.4354 8.87962 74.6139 10.1301 75.4416 11.7404C76.2692 13.3417 76.6831 15.2129 76.6831 17.354C76.6831 19.4772 76.2692 21.3439 75.4416 22.9542C74.6139 24.5555 73.4354 25.806 71.9061 26.7056C70.3857 27.5962 68.5775 28.0415 66.4814 28.0415ZM66.5083 23.5884C67.4619 23.5884 68.2581 23.3185 68.8968 22.7788C69.5356 22.23 70.0169 21.4833 70.3407 20.5387C70.6736 19.5941 70.84 18.5191 70.84 17.3136C70.84 16.1081 70.6736 15.033 70.3407 14.0884C70.0169 13.1438 69.5356 12.3971 68.8968 11.8484C68.2581 11.2996 67.4619 11.0252 66.5083 11.0252C65.5458 11.0252 64.7361 11.2996 64.0794 11.8484C63.4316 12.3971 62.9413 13.1438 62.6085 14.0884C62.2846 15.033 62.1227 16.1081 62.1227 17.3136C62.1227 18.5191 62.2846 19.5941 62.6085 20.5387C62.9413 21.4833 63.4316 22.23 64.0794 22.7788C64.7361 23.3185 65.5458 23.5884 66.5083 23.5884ZM93.7129 18.8114V6.90945H99.4615V27.6367H93.9423V23.8718H93.7264C93.2586 25.0863 92.4804 26.0624 91.3919 26.8001C90.3123 27.5378 88.9944 27.9066 87.438 27.9066C86.0526 27.9066 84.8336 27.5917 83.7811 26.962C82.7285 26.3323 81.9054 25.4371 81.3116 24.2766C80.7269 23.1161 80.43 21.7262 80.421 20.1069V6.90945H86.1696V19.0813C86.1786 20.3048 86.5069 21.2719 87.1547 21.9826C87.8024 22.6933 88.6705 23.0487 89.7591 23.0487C90.4518 23.0487 91.0995 22.8912 91.7022 22.5763C92.305 22.2525 92.7908 21.7757 93.1596 21.146C93.5375 20.5162 93.7219 19.738 93.7129 18.8114ZM104.06 27.6367V6.90945H109.633V10.5259H109.849C110.227 9.23946 110.861 8.26787 111.751 7.61115C112.642 6.94543 113.668 6.61257 114.828 6.61257C115.116 6.61257 115.426 6.63056 115.759 6.66655C116.092 6.70253 116.384 6.75201 116.636 6.81498V11.9158C116.366 11.8349 115.993 11.7629 115.516 11.6999C115.04 11.637 114.603 11.6055 114.207 11.6055C113.362 11.6055 112.606 11.7899 111.94 12.1587C111.284 12.5186 110.762 13.0224 110.375 13.6701C109.997 14.3178 109.808 15.0645 109.808 15.9102V27.6367H104.06ZM134.314 28.0281C132.991 28.0281 131.813 27.7987 130.778 27.3398C129.744 26.872 128.925 26.1838 128.322 25.2752C127.729 24.3576 127.432 23.2151 127.432 21.8477C127.432 20.6961 127.643 19.729 128.066 18.9464C128.489 18.1637 129.065 17.534 129.793 17.0572C130.522 16.5804 131.35 16.2205 132.276 15.9776C133.212 15.7347 134.192 15.5638 135.218 15.4648C136.424 15.3389 137.395 15.2219 138.133 15.114C138.871 14.997 139.406 14.8261 139.739 14.6012C140.071 14.3763 140.238 14.0434 140.238 13.6026V13.5217C140.238 12.667 139.968 12.0058 139.428 11.538C138.897 11.0702 138.142 10.8363 137.161 10.8363C136.127 10.8363 135.304 11.0657 134.692 11.5245C134.08 11.9743 133.675 12.5411 133.477 13.2248L128.161 12.793C128.43 11.5335 128.961 10.445 129.753 9.52734C130.545 8.60073 131.566 7.89003 132.816 7.39524C134.076 6.89145 135.533 6.63956 137.188 6.63956C138.34 6.63956 139.442 6.7745 140.494 7.04439C141.556 7.31428 142.496 7.7326 143.315 8.29936C144.142 8.86612 144.795 9.59482 145.271 10.4854C145.748 11.3671 145.987 12.4241 145.987 13.6566V27.6367H140.535V24.7624H140.373C140.04 25.4102 139.595 25.9814 139.037 26.4762C138.479 26.962 137.809 27.3443 137.026 27.6232C136.244 27.8931 135.339 28.0281 134.314 28.0281ZM135.96 24.0607C136.806 24.0607 137.553 23.8943 138.2 23.5614C138.848 23.2196 139.356 22.7608 139.725 22.185C140.094 21.6093 140.278 20.957 140.278 20.2283V18.0288C140.098 18.1457 139.851 18.2537 139.536 18.3526C139.23 18.4426 138.884 18.5281 138.497 18.609C138.11 18.681 137.723 18.7485 137.337 18.8114C136.95 18.8654 136.599 18.9149 136.284 18.9599C135.609 19.0588 135.02 19.2163 134.516 19.4322C134.013 19.6481 133.621 19.9405 133.342 20.3093C133.063 20.6692 132.924 21.119 132.924 21.6587C132.924 22.4414 133.207 23.0397 133.774 23.4535C134.35 23.8583 135.079 24.0607 135.96 24.0607ZM159.784 35.8413C157.922 35.8413 156.325 35.5849 154.994 35.0721C153.672 34.5683 152.619 33.8801 151.836 33.0075C151.054 32.1348 150.545 31.1542 150.311 30.0657L155.628 29.3505C155.79 29.7643 156.047 30.1512 156.397 30.511C156.748 30.8709 157.212 31.1587 157.787 31.3746C158.372 31.5996 159.083 31.712 159.919 31.712C161.17 31.712 162.2 31.4061 163.01 30.7944C163.828 30.1916 164.238 29.1796 164.238 27.7582V23.9663H163.995C163.743 24.542 163.365 25.0863 162.861 25.5991C162.357 26.1119 161.71 26.5302 160.918 26.854C160.126 27.1779 159.182 27.3398 158.084 27.3398C156.528 27.3398 155.111 26.98 153.833 26.2603C152.565 25.5316 151.553 24.4206 150.797 22.9272C150.051 21.4248 149.677 19.5266 149.677 17.2326C149.677 14.8846 150.06 12.9234 150.824 11.3491C151.589 9.77474 152.605 8.59624 153.874 7.81357C155.151 7.03089 156.55 6.63956 158.071 6.63956C159.231 6.63956 160.203 6.83748 160.985 7.23331C161.768 7.62015 162.398 8.10594 162.875 8.6907C163.36 9.26645 163.734 9.83321 163.995 10.391H164.211V6.90945H169.919V27.8391C169.919 29.6024 169.487 31.0778 168.623 32.2653C167.76 33.4528 166.563 34.3434 165.034 34.9371C163.513 35.5399 161.764 35.8413 159.784 35.8413ZM159.906 23.0217C160.833 23.0217 161.615 22.7923 162.254 22.3335C162.902 21.8656 163.396 21.1999 163.738 20.3363C164.089 19.4637 164.265 18.4201 164.265 17.2056C164.265 15.9911 164.094 14.9386 163.752 14.0479C163.41 13.1483 162.915 12.4511 162.267 11.9563C161.62 11.4615 160.833 11.2141 159.906 11.2141C158.961 11.2141 158.165 11.4705 157.517 11.9833C156.87 12.4871 156.379 13.1888 156.047 14.0884C155.714 14.988 155.547 16.0271 155.547 17.2056C155.547 18.4021 155.714 19.4367 156.047 20.3093C156.388 21.1729 156.879 21.8432 157.517 22.32C158.165 22.7878 158.961 23.0217 159.906 23.0217ZM183.939 28.0415C181.807 28.0415 179.972 27.6097 178.434 26.7461C176.904 25.8735 175.726 24.641 174.898 23.0487C174.07 21.4473 173.657 19.5536 173.657 17.3675C173.657 15.2354 174.07 13.3642 174.898 11.7539C175.726 10.1436 176.891 8.88861 178.393 7.98899C179.904 7.08937 181.677 6.63956 183.71 6.63956C185.077 6.63956 186.35 6.85997 187.529 7.30078C188.716 7.7326 189.751 8.38482 190.632 9.25746C191.523 10.1301 192.216 11.2276 192.711 12.5501C193.205 13.8635 193.453 15.4019 193.453 17.1651V18.744H175.951V15.1815H188.042C188.042 14.3538 187.862 13.6206 187.502 12.9819C187.142 12.3432 186.643 11.8439 186.004 11.484C185.374 11.1152 184.641 10.9308 183.804 10.9308C182.932 10.9308 182.158 11.1332 181.483 11.538C180.818 11.9338 180.296 12.4691 179.918 13.1438C179.54 13.8095 179.347 14.5517 179.338 15.3704V18.7575C179.338 19.783 179.527 20.6692 179.904 21.4158C180.291 22.1625 180.836 22.7383 181.537 23.1431C182.239 23.5479 183.071 23.7504 184.034 23.7504C184.672 23.7504 185.257 23.6604 185.788 23.4805C186.319 23.3005 186.773 23.0307 187.151 22.6708C187.529 22.311 187.817 21.8701 188.015 21.3484L193.331 21.6992C193.061 22.9767 192.508 24.0922 191.672 25.0458C190.844 25.9904 189.773 26.7281 188.46 27.2589C187.155 27.7807 185.649 28.0415 183.939 28.0415ZM202.953 15.6538V27.6367H197.204V6.90945H202.683V10.5664H202.926C203.385 9.36091 204.154 8.40731 205.233 7.70561C206.313 6.99491 207.622 6.63956 209.16 6.63956C210.6 6.63956 211.855 6.95443 212.925 7.58416C213.996 8.2139 214.828 9.11352 215.422 10.283C216.015 11.4435 216.312 12.829 216.312 14.4393V27.6367H210.564V15.4648C210.573 14.1964 210.249 13.2068 209.592 12.4961C208.935 11.7764 208.031 11.4165 206.88 11.4165C206.106 11.4165 205.422 11.583 204.828 11.9158C204.244 12.2487 203.785 12.7345 203.452 13.3732C203.128 14.003 202.962 14.7631 202.953 15.6538ZM231.868 6.90945V11.2276H219.385V6.90945H231.868ZM222.219 1.94354H227.968V21.2674C227.968 21.7982 228.049 22.212 228.211 22.5089C228.373 22.7968 228.598 22.9992 228.885 23.1161C229.182 23.2331 229.524 23.2915 229.911 23.2915C230.181 23.2915 230.451 23.2691 230.721 23.2241C230.991 23.1701 231.198 23.1296 231.341 23.1026L232.246 27.3803C231.958 27.4703 231.553 27.5737 231.031 27.6907C230.509 27.8166 229.875 27.8931 229.128 27.9201C227.743 27.9741 226.528 27.7897 225.485 27.3668C224.45 26.944 223.645 26.2873 223.069 25.3967C222.494 24.506 222.21 23.3815 222.219 22.0231V1.94354ZM252.598 12.82L247.336 13.1438C247.246 12.694 247.052 12.2892 246.755 11.9293C246.458 11.5605 246.067 11.2681 245.581 11.0522C245.105 10.8273 244.533 10.7148 243.868 10.7148C242.977 10.7148 242.226 10.9038 241.614 11.2816C241.002 11.6504 240.696 12.1452 240.696 12.766C240.696 13.2608 240.894 13.6791 241.29 14.021C241.686 14.3628 242.365 14.6372 243.328 14.8441L247.079 15.5998C249.094 16.0136 250.597 16.6793 251.586 17.5969C252.576 18.5146 253.071 19.7201 253.071 21.2134C253.071 22.5719 252.67 23.7638 251.87 24.7894C251.078 25.815 249.989 26.6156 248.604 27.1914C247.228 27.7582 245.64 28.0415 243.841 28.0415C241.097 28.0415 238.911 27.4703 237.282 26.3278C235.663 25.1763 234.714 23.6109 234.435 21.6317L240.089 21.3349C240.26 22.1715 240.674 22.8103 241.331 23.2511C241.987 23.6829 242.828 23.8988 243.854 23.8988C244.862 23.8988 245.671 23.7054 246.283 23.3185C246.904 22.9227 247.219 22.4144 247.228 21.7937C247.219 21.2719 246.998 20.8446 246.566 20.5117C246.135 20.1699 245.469 19.909 244.569 19.729L240.98 19.0138C238.956 18.609 237.449 17.9073 236.459 16.9087C235.479 15.9102 234.988 14.6372 234.988 13.0898C234.988 11.7584 235.348 10.6114 236.068 9.64879C236.797 8.6862 237.818 7.94401 239.131 7.42223C240.453 6.90045 242.001 6.63956 243.773 6.63956C246.391 6.63956 248.451 7.19283 249.953 8.29936C251.465 9.40589 252.346 10.9128 252.598 12.82ZM260.051 27.9876C259.16 27.9876 258.395 27.6727 257.757 27.043C257.127 26.4042 256.812 25.6396 256.812 24.7489C256.812 23.8673 257.127 23.1116 257.757 22.4819C258.395 21.8522 259.16 21.5373 260.051 21.5373C260.914 21.5373 261.67 21.8522 262.318 22.4819C262.965 23.1116 263.289 23.8673 263.289 24.7489C263.289 25.3427 263.136 25.887 262.83 26.3817C262.534 26.8675 262.142 27.2589 261.656 27.5558C261.171 27.8436 260.635 27.9876 260.051 27.9876ZM273.994 0.00035429H280.538L286.84 11.9023H287.11L293.412 0.00035429H299.957L289.876 17.8668V27.6367H284.074V17.8668L273.994 0.00035429ZM308.063 28.0415C305.967 28.0415 304.155 27.5962 302.625 26.7056C301.105 25.806 299.931 24.5555 299.103 22.9542C298.276 21.3439 297.862 19.4772 297.862 17.354C297.862 15.2129 298.276 13.3417 299.103 11.7404C299.931 10.1301 301.105 8.87962 302.625 7.98899C304.155 7.08937 305.967 6.63956 308.063 6.63956C310.16 6.63956 311.968 7.08937 313.488 7.98899C315.017 8.87962 316.196 10.1301 317.024 11.7404C317.851 13.3417 318.265 15.2129 318.265 17.354C318.265 19.4772 317.851 21.3439 317.024 22.9542C316.196 24.5555 315.017 25.806 313.488 26.7056C311.968 27.5962 310.16 28.0415 308.063 28.0415ZM308.09 23.5884C309.044 23.5884 309.84 23.3185 310.479 22.7788C311.118 22.23 311.599 21.4833 311.923 20.5387C312.256 19.5941 312.422 18.5191 312.422 17.3136C312.422 16.1081 312.256 15.033 311.923 14.0884C311.599 13.1438 311.118 12.3971 310.479 11.8484C309.84 11.2996 309.044 11.0252 308.09 11.0252C307.128 11.0252 306.318 11.2996 305.661 11.8484C305.014 12.3971 304.523 13.1438 304.191 14.0884C303.867 15.033 303.705 16.1081 303.705 17.3136C303.705 18.5191 303.867 19.5941 304.191 20.5387C304.523 21.4833 305.014 22.23 305.661 22.7788C306.318 23.3185 307.128 23.5884 308.09 23.5884ZM335.295 18.8114V6.90945H341.044V27.6367H335.524V23.8718H335.308C334.841 25.0863 334.062 26.0624 332.974 26.8001C331.894 27.5378 330.576 27.9066 329.02 27.9066C327.635 27.9066 326.416 27.5917 325.363 26.962C324.311 26.3323 323.487 25.4371 322.894 24.2766C322.309 23.1161 322.012 21.7262 322.003 20.1069V6.90945H327.752V19.0813C327.761 20.3048 328.089 21.2719 328.737 21.9826C329.384 22.6933 330.253 23.0487 331.341 23.0487C332.034 23.0487 332.682 22.8912 333.284 22.5763C333.887 22.2525 334.373 21.7757 334.742 21.146C335.119 20.5162 335.304 19.738 335.295 18.8114ZM345.642 27.6367V6.90945H351.215V10.5259H351.431C351.809 9.23946 352.443 8.26787 353.333 7.61115C354.224 6.94543 355.25 6.61257 356.41 6.61257C356.698 6.61257 357.008 6.63056 357.341 6.66655C357.674 6.70253 357.967 6.75201 358.218 6.81498V11.9158C357.949 11.8349 357.575 11.7629 357.098 11.6999C356.622 11.637 356.185 11.6055 355.789 11.6055C354.944 11.6055 354.188 11.7899 353.522 12.1587C352.866 12.5186 352.344 13.0224 351.957 13.6701C351.579 14.3178 351.39 15.0645 351.39 15.9102V27.6367H345.642ZM375.194 21.6722L375.208 14.7766H376.044L382.684 6.90945H389.282L380.363 17.3271H379L375.194 21.6722ZM369.985 27.6367V0.00035429H375.734V27.6367H369.985ZM382.94 27.6367L376.841 18.609L380.673 14.5472L389.674 27.6367H382.94ZM400.695 28.0415C398.563 28.0415 396.728 27.6097 395.189 26.7461C393.66 25.8735 392.482 24.641 391.654 23.0487C390.826 21.4473 390.412 19.5536 390.412 17.3675C390.412 15.2354 390.826 13.3642 391.654 11.7539C392.482 10.1436 393.647 8.88861 395.149 7.98899C396.66 7.08937 398.433 6.63956 400.466 6.63956C401.833 6.63956 403.106 6.85997 404.285 7.30078C405.472 7.7326 406.507 8.38482 407.388 9.25746C408.279 10.1301 408.972 11.2276 409.466 12.5501C409.961 13.8635 410.209 15.4019 410.209 17.1651V18.744H392.706V15.1815H404.797C404.797 14.3538 404.617 13.6206 404.258 12.9819C403.898 12.3432 403.398 11.8439 402.76 11.484C402.13 11.1152 401.397 10.9308 400.56 10.9308C399.688 10.9308 398.914 11.1332 398.239 11.538C397.573 11.9338 397.052 12.4691 396.674 13.1438C396.296 13.8095 396.103 14.5517 396.094 15.3704V18.7575C396.094 19.783 396.282 20.6692 396.66 21.4158C397.047 22.1625 397.591 22.7383 398.293 23.1431C398.995 23.5479 399.827 23.7504 400.79 23.7504C401.428 23.7504 402.013 23.6604 402.544 23.4805C403.075 23.3005 403.529 23.0307 403.907 22.6708C404.285 22.311 404.573 21.8701 404.77 21.3484L410.087 21.6992C409.817 22.9767 409.264 24.0922 408.427 25.0458C407.6 25.9904 406.529 26.7281 405.216 27.2589C403.911 27.7807 402.404 28.0415 400.695 28.0415ZM416.952 35.4094C416.224 35.4094 415.54 35.351 414.901 35.234C414.272 35.1261 413.75 34.9866 413.336 34.8157L414.631 30.5245C415.306 30.7314 415.913 30.8439 416.453 30.8619C417.002 30.8799 417.474 30.7539 417.87 30.484C418.275 30.2141 418.603 29.7553 418.855 29.1076L419.192 28.2305L411.757 6.90945H417.803L422.094 22.131H422.31L426.641 6.90945H432.727L424.671 29.8768C424.284 30.9923 423.758 31.9639 423.092 32.7915C422.436 33.6282 421.603 34.2714 420.596 34.7212C419.588 35.18 418.374 35.4094 416.952 35.4094ZM452.915 12.82L447.652 13.1438C447.562 12.694 447.369 12.2892 447.072 11.9293C446.775 11.5605 446.384 11.2681 445.898 11.0522C445.421 10.8273 444.85 10.7148 444.184 10.7148C443.293 10.7148 442.542 10.9038 441.93 11.2816C441.319 11.6504 441.013 12.1452 441.013 12.766C441.013 13.2608 441.211 13.6791 441.607 14.021C442.002 14.3628 442.682 14.6372 443.644 14.8441L447.396 15.5998C449.411 16.0136 450.913 16.6793 451.903 17.5969C452.892 18.5146 453.387 19.7201 453.387 21.2134C453.387 22.5719 452.987 23.7638 452.186 24.7894C451.394 25.815 450.306 26.6156 448.92 27.1914C447.544 27.7582 445.956 28.0415 444.157 28.0415C441.413 28.0415 439.227 27.4703 437.599 26.3278C435.979 25.1763 435.03 23.6109 434.751 21.6317L440.406 21.3349C440.576 22.1715 440.99 22.8103 441.647 23.2511C442.304 23.6829 443.145 23.8988 444.17 23.8988C445.178 23.8988 445.988 23.7054 446.599 23.3185C447.22 22.9227 447.535 22.4144 447.544 21.7937C447.535 21.2719 447.315 20.8446 446.883 20.5117C446.451 20.1699 445.785 19.909 444.886 19.729L441.296 19.0138C439.272 18.609 437.765 17.9073 436.776 16.9087C435.795 15.9102 435.305 14.6372 435.305 13.0898C435.305 11.7584 435.665 10.6114 436.384 9.64879C437.113 8.6862 438.134 7.94401 439.447 7.42223C440.77 6.90045 442.317 6.63956 444.089 6.63956C446.707 6.63956 448.768 7.19283 450.27 8.29936C451.781 9.40589 452.663 10.9128 452.915 12.82ZM460.367 27.9876C459.476 27.9876 458.712 27.6727 458.073 27.043C457.443 26.4042 457.128 25.6396 457.128 24.7489C457.128 23.8673 457.443 23.1116 458.073 22.4819C458.712 21.8522 459.476 21.5373 460.367 21.5373C461.231 21.5373 461.986 21.8522 462.634 22.4819C463.282 23.1116 463.606 23.8673 463.606 24.7489C463.606 25.3427 463.453 25.887 463.147 26.3817C462.85 26.8675 462.459 27.2589 461.973 27.5558C461.487 27.8436 460.952 27.9876 460.367 27.9876ZM474.31 0.00035429H480.855L487.157 11.9023H487.426L493.728 0.00035429H500.273L490.193 17.8668V27.6367H484.39V17.8668L474.31 0.00035429ZM508.38 28.0415C506.284 28.0415 504.471 27.5962 502.942 26.7056C501.421 25.806 500.247 24.5555 499.42 22.9542C498.592 21.3439 498.178 19.4772 498.178 17.354C498.178 15.2129 498.592 13.3417 499.42 11.7404C500.247 10.1301 501.421 8.87962 502.942 7.98899C504.471 7.08937 506.284 6.63956 508.38 6.63956C510.476 6.63956 512.284 7.08937 513.805 7.98899C515.334 8.87962 516.512 10.1301 517.34 11.7404C518.168 13.3417 518.581 15.2129 518.581 17.354C518.581 19.4772 518.168 21.3439 517.34 22.9542C516.512 24.5555 515.334 25.806 513.805 26.7056C512.284 27.5962 510.476 28.0415 508.38 28.0415ZM508.407 23.5884C509.36 23.5884 510.157 23.3185 510.795 22.7788C511.434 22.23 511.915 21.4833 512.239 20.5387C512.572 19.5941 512.738 18.5191 512.738 17.3136C512.738 16.1081 512.572 15.033 512.239 14.0884C511.915 13.1438 511.434 12.3971 510.795 11.8484C510.157 11.2996 509.36 11.0252 508.407 11.0252C507.444 11.0252 506.635 11.2996 505.978 11.8484C505.33 12.3971 504.84 13.1438 504.507 14.0884C504.183 15.033 504.021 16.1081 504.021 17.3136C504.021 18.5191 504.183 19.5941 504.507 20.5387C504.84 21.4833 505.33 22.23 505.978 22.7788C506.635 23.3185 507.444 23.5884 508.407 23.5884ZM535.611 18.8114V6.90945H541.36V27.6367H535.841V23.8718H535.625C535.157 25.0863 534.379 26.0624 533.29 26.8001C532.211 27.5378 530.893 27.9066 529.336 27.9066C527.951 27.9066 526.732 27.5917 525.68 26.962C524.627 26.3323 523.804 25.4371 523.21 24.2766C522.625 23.1161 522.328 21.7262 522.319 20.1069V6.90945H528.068V19.0813C528.077 20.3048 528.405 21.2719 529.053 21.9826C529.701 22.6933 530.569 23.0487 531.657 23.0487C532.35 23.0487 532.998 22.8912 533.601 22.5763C534.203 22.2525 534.689 21.7757 535.058 21.146C535.436 20.5162 535.62 19.738 535.611 18.8114ZM545.958 27.6367V6.90945H551.531V10.5259H551.747C552.125 9.23946 552.759 8.26787 553.65 7.61115C554.54 6.94543 555.566 6.61257 556.727 6.61257C557.014 6.61257 557.325 6.63056 557.658 6.66655C557.991 6.70253 558.283 6.75201 558.535 6.81498V11.9158C558.265 11.8349 557.892 11.7629 557.415 11.6999C556.938 11.637 556.502 11.6055 556.106 11.6055C555.26 11.6055 554.504 11.7899 553.839 12.1587C553.182 12.5186 552.66 13.0224 552.273 13.6701C551.896 14.3178 551.707 15.0645 551.707 15.9102V27.6367H545.958ZM576.212 28.0281C574.89 28.0281 573.711 27.7987 572.677 27.3398C571.642 26.872 570.824 26.1838 570.221 25.2752C569.627 24.3576 569.33 23.2151 569.33 21.8477C569.33 20.6961 569.542 19.729 569.964 18.9464C570.387 18.1637 570.963 17.534 571.692 17.0572C572.42 16.5804 573.248 16.2205 574.175 15.9776C575.11 15.7347 576.091 15.5638 577.116 15.4648C578.322 15.3389 579.294 15.2219 580.031 15.114C580.769 14.997 581.304 14.8261 581.637 14.6012C581.97 14.3763 582.136 14.0434 582.136 13.6026V13.5217C582.136 12.667 581.866 12.0058 581.327 11.538C580.796 11.0702 580.04 10.8363 579.06 10.8363C578.025 10.8363 577.202 11.0657 576.59 11.5245C575.978 11.9743 575.574 12.5411 575.376 13.2248L570.059 12.793C570.329 11.5335 570.86 10.445 571.651 9.52734C572.443 8.60073 573.464 7.89003 574.714 7.39524C575.974 6.89145 577.431 6.63956 579.087 6.63956C580.238 6.63956 581.34 6.7745 582.393 7.04439C583.454 7.31428 584.394 7.7326 585.213 8.29936C586.041 8.86612 586.693 9.59482 587.17 10.4854C587.647 11.3671 587.885 12.4241 587.885 13.6566V27.6367H582.433V24.7624H582.271C581.938 25.4102 581.493 25.9814 580.935 26.4762C580.378 26.962 579.707 27.3443 578.925 27.6232C578.142 27.8931 577.238 28.0281 576.212 28.0281ZM577.859 24.0607C578.704 24.0607 579.451 23.8943 580.099 23.5614C580.746 23.2196 581.255 22.7608 581.624 22.185C581.992 21.6093 582.177 20.957 582.177 20.2283V18.0288C581.997 18.1457 581.75 18.2537 581.435 18.3526C581.129 18.4426 580.782 18.5281 580.396 18.609C580.009 18.681 579.622 18.7485 579.235 18.8114C578.848 18.8654 578.497 18.9149 578.183 18.9599C577.508 19.0588 576.919 19.2163 576.415 19.4322C575.911 19.6481 575.52 19.9405 575.241 20.3093C574.962 20.6692 574.822 21.119 574.822 21.6587C574.822 22.4414 575.106 23.0397 575.673 23.4535C576.248 23.8583 576.977 24.0607 577.859 24.0607ZM592.345 35.4094V6.90945H598.012V10.391H598.269C598.521 9.83321 598.885 9.26645 599.362 8.6907C599.848 8.10594 600.477 7.62015 601.251 7.23331C602.034 6.83748 603.005 6.63956 604.166 6.63956C605.677 6.63956 607.072 7.03539 608.349 7.82706C609.627 8.60973 610.648 9.79273 611.412 11.3761C612.177 12.9504 612.559 14.9251 612.559 17.3001C612.559 19.6121 612.186 21.5643 611.439 23.1566C610.702 24.7399 609.694 25.9409 608.417 26.7596C607.148 27.5692 605.727 27.9741 604.152 27.9741C603.037 27.9741 602.088 27.7897 601.305 27.4208C600.531 27.052 599.897 26.5887 599.402 26.0309C598.908 25.4641 598.53 24.8929 598.269 24.3171H598.093V35.4094H592.345ZM597.972 17.2731C597.972 18.5056 598.143 19.5806 598.485 20.4982C598.827 21.4158 599.321 22.131 599.969 22.6438C600.617 23.1476 601.404 23.3995 602.331 23.3995C603.266 23.3995 604.058 23.1431 604.706 22.6303C605.353 22.1085 605.844 21.3888 606.176 20.4712C606.518 19.5446 606.689 18.4786 606.689 17.2731C606.689 16.0766 606.523 15.024 606.19 14.1154C605.857 13.2068 605.367 12.4961 604.719 11.9833C604.071 11.4705 603.275 11.2141 602.331 11.2141C601.395 11.2141 600.603 11.4615 599.956 11.9563C599.317 12.4511 598.827 13.1528 598.485 14.0614C598.143 14.9701 597.972 16.0406 597.972 17.2731ZM616.392 35.4094V6.90945H622.059V10.391H622.316C622.568 9.83321 622.932 9.26645 623.409 8.6907C623.895 8.10594 624.524 7.62015 625.298 7.23331C626.081 6.83748 627.052 6.63956 628.213 6.63956C629.724 6.63956 631.118 7.03539 632.396 7.82706C633.673 8.60973 634.694 9.79273 635.459 11.3761C636.224 12.9504 636.606 14.9251 636.606 17.3001C636.606 19.6121 636.233 21.5643 635.486 23.1566C634.748 24.7399 633.741 25.9409 632.463 26.7596C631.195 27.5692 629.774 27.9741 628.199 27.9741C627.084 27.9741 626.135 27.7897 625.352 27.4208C624.578 27.052 623.944 26.5887 623.449 26.0309C622.954 25.4641 622.577 24.8929 622.316 24.3171H622.14V35.4094H616.392ZM622.019 17.2731C622.019 18.5056 622.19 19.5806 622.532 20.4982C622.873 21.4158 623.368 22.131 624.016 22.6438C624.664 23.1476 625.451 23.3995 626.377 23.3995C627.313 23.3995 628.105 23.1431 628.752 22.6303C629.4 22.1085 629.891 21.3888 630.223 20.4712C630.565 19.5446 630.736 18.4786 630.736 17.2731C630.736 16.0766 630.57 15.024 630.237 14.1154C629.904 13.2068 629.414 12.4961 628.766 11.9833C628.118 11.4705 627.322 11.2141 626.377 11.2141C625.442 11.2141 624.65 11.4615 624.002 11.9563C623.364 12.4511 622.873 13.1528 622.532 14.0614C622.19 14.9701 622.019 16.0406 622.019 17.2731ZM640.439 27.6367V6.90945H646.012V10.5259H646.228C646.605 9.23946 647.24 8.26787 648.13 7.61115C649.021 6.94543 650.047 6.61257 651.207 6.61257C651.495 6.61257 651.805 6.63056 652.138 6.66655C652.471 6.70253 652.763 6.75201 653.015 6.81498V11.9158C652.745 11.8349 652.372 11.7629 651.895 11.6999C651.418 11.637 650.982 11.6055 650.586 11.6055C649.741 11.6055 648.985 11.7899 648.319 12.1587C647.663 12.5186 647.141 13.0224 646.754 13.6701C646.376 14.3178 646.187 15.0645 646.187 15.9102V27.6367H640.439ZM664.388 28.0415C662.291 28.0415 660.479 27.5962 658.949 26.7056C657.429 25.806 656.255 24.5555 655.427 22.9542C654.6 21.3439 654.186 19.4772 654.186 17.354C654.186 15.2129 654.6 13.3417 655.427 11.7404C656.255 10.1301 657.429 8.87962 658.949 7.98899C660.479 7.08937 662.291 6.63956 664.388 6.63956C666.484 6.63956 668.292 7.08937 669.812 7.98899C671.342 8.87962 672.52 10.1301 673.348 11.7404C674.175 13.3417 674.589 15.2129 674.589 17.354C674.589 19.4772 674.175 21.3439 673.348 22.9542C672.52 24.5555 671.342 25.806 669.812 26.7056C668.292 27.5962 666.484 28.0415 664.388 28.0415ZM664.415 23.5884C665.368 23.5884 666.164 23.3185 666.803 22.7788C667.442 22.23 667.923 21.4833 668.247 20.5387C668.58 19.5941 668.746 18.5191 668.746 17.3136C668.746 16.1081 668.58 15.033 668.247 14.0884C667.923 13.1438 667.442 12.3971 666.803 11.8484C666.164 11.2996 665.368 11.0252 664.415 11.0252C663.452 11.0252 662.642 11.2996 661.986 11.8484C661.338 12.3971 660.848 13.1438 660.515 14.0884C660.191 15.033 660.029 16.1081 660.029 17.3136C660.029 18.5191 660.191 19.5941 660.515 20.5387C660.848 21.4833 661.338 22.23 661.986 22.7788C662.642 23.3185 663.452 23.5884 664.415 23.5884ZM696.983 6.90945L689.737 27.6367H683.259L676.013 6.90945H682.085L686.39 21.7397H686.606L690.897 6.90945H696.983ZM705.279 28.0281C703.956 28.0281 702.778 27.7987 701.743 27.3398C700.709 26.872 699.89 26.1838 699.287 25.2752C698.694 24.3576 698.397 23.2151 698.397 21.8477C698.397 20.6961 698.608 19.729 699.031 18.9464C699.454 18.1637 700.029 17.534 700.758 17.0572C701.487 16.5804 702.315 16.2205 703.241 15.9776C704.177 15.7347 705.157 15.5638 706.183 15.4648C707.388 15.3389 708.36 15.2219 709.098 15.114C709.835 14.997 710.371 14.8261 710.703 14.6012C711.036 14.3763 711.203 14.0434 711.203 13.6026V13.5217C711.203 12.667 710.933 12.0058 710.393 11.538C709.862 11.0702 709.107 10.8363 708.126 10.8363C707.092 10.8363 706.268 11.0657 705.657 11.5245C705.045 11.9743 704.64 12.5411 704.442 13.2248L699.125 12.793C699.395 11.5335 699.926 10.445 700.718 9.52734C701.509 8.60073 702.53 7.89003 703.781 7.39524C705.04 6.89145 706.498 6.63956 708.153 6.63956C709.305 6.63956 710.407 6.7745 711.459 7.04439C712.521 7.31428 713.461 7.7326 714.279 8.29936C715.107 8.86612 715.759 9.59482 716.236 10.4854C716.713 11.3671 716.951 12.4241 716.951 13.6566V27.6367H711.5V24.7624H711.338C711.005 25.4102 710.56 25.9814 710.002 26.4762C709.444 26.962 708.774 27.3443 707.991 27.6232C707.208 27.8931 706.304 28.0281 705.279 28.0281ZM706.925 24.0607C707.771 24.0607 708.517 23.8943 709.165 23.5614C709.813 23.2196 710.321 22.7608 710.69 22.185C711.059 21.6093 711.243 20.957 711.243 20.2283V18.0288C711.063 18.1457 710.816 18.2537 710.501 18.3526C710.195 18.4426 709.849 18.5281 709.462 18.609C709.075 18.681 708.688 18.7485 708.301 18.8114C707.915 18.8654 707.564 18.9149 707.249 18.9599C706.574 19.0588 705.985 19.2163 705.481 19.4322C704.977 19.6481 704.586 19.9405 704.307 20.3093C704.028 20.6692 703.889 21.119 703.889 21.6587C703.889 22.4414 704.172 23.0397 704.739 23.4535C705.315 23.8583 706.043 24.0607 706.925 24.0607ZM727.16 0.00035429V27.6367H721.411V0.00035429H727.16ZM735.125 27.9876C734.234 27.9876 733.47 27.6727 732.831 27.043C732.201 26.4042 731.886 25.6396 731.886 24.7489C731.886 23.8673 732.201 23.1116 732.831 22.4819C733.47 21.8522 734.234 21.5373 735.125 21.5373C735.988 21.5373 736.744 21.8522 737.392 22.4819C738.04 23.1116 738.363 23.8673 738.363 24.7489C738.363 25.3427 738.211 25.887 737.905 26.3817C737.608 26.8675 737.216 27.2589 736.731 27.5558C736.245 27.8436 735.71 27.9876 735.125 27.9876ZM3.50843 119.637H-8.87141e-05L10.1476 92.0004H13.6022L23.7499 119.637H20.2414L11.9829 96.3725H11.767L3.50843 119.637ZM4.80389 108.841H18.9459V111.81H4.80389V108.841ZM27.6228 127.409V98.9094H30.6995V102.202H31.0773C31.3112 101.842 31.6351 101.383 32.0489 100.826C32.4717 100.259 33.0745 99.7551 33.8572 99.3143C34.6488 98.8645 35.7194 98.6396 37.0688 98.6396C38.8141 98.6396 40.3524 99.0759 41.6839 99.9485C43.0153 100.821 44.0544 102.058 44.801 103.659C45.5477 105.261 45.9211 107.15 45.9211 109.327C45.9211 111.522 45.5477 113.425 44.801 115.035C44.0544 116.636 43.0198 117.878 41.6974 118.76C40.3749 119.632 38.8501 120.069 37.1228 120.069C35.7913 120.069 34.7253 119.848 33.9246 119.407C33.124 118.958 32.5077 118.449 32.0759 117.882C31.6441 117.307 31.3112 116.83 31.0773 116.452H30.8074V127.409H27.6228ZM30.7535 109.273C30.7535 110.838 30.9829 112.219 31.4417 113.416C31.9005 114.603 32.5707 115.534 33.4523 116.209C34.334 116.875 35.4135 117.208 36.691 117.208C38.0224 117.208 39.1334 116.857 40.0241 116.155C40.9237 115.444 41.5984 114.491 42.0482 113.294C42.507 112.089 42.7364 110.748 42.7364 109.273C42.7364 107.816 42.5115 106.502 42.0617 105.333C41.6209 104.154 40.9507 103.223 40.051 102.539C39.1604 101.847 38.0404 101.5 36.691 101.5C35.3955 101.5 34.307 101.829 33.4253 102.485C32.5437 103.133 31.878 104.042 31.4282 105.211C30.9784 106.372 30.7535 107.726 30.7535 109.273ZM50.779 127.409V98.9094H53.8557V102.202H54.2336C54.4675 101.842 54.7913 101.383 55.2052 100.826C55.628 100.259 56.2307 99.7551 57.0134 99.3143C57.8051 98.8645 58.8756 98.6396 60.2251 98.6396C61.9703 98.6396 63.5087 99.0759 64.8401 99.9485C66.1715 100.821 67.2106 102.058 67.9573 103.659C68.704 105.261 69.0773 107.15 69.0773 109.327C69.0773 111.522 68.704 113.425 67.9573 115.035C67.2106 116.636 66.176 117.878 64.8536 118.76C63.5312 119.632 62.0063 120.069 60.279 120.069C58.9476 120.069 57.8815 119.848 57.0809 119.407C56.2802 118.958 55.664 118.449 55.2322 117.882C54.8003 117.307 54.4675 116.83 54.2336 116.452H53.9637V127.409H50.779ZM53.9097 109.273C53.9097 110.838 54.1391 112.219 54.5979 113.416C55.0567 114.603 55.7269 115.534 56.6086 116.209C57.4902 116.875 58.5698 117.208 59.8472 117.208C61.1787 117.208 62.2897 116.857 63.1803 116.155C64.0799 115.444 64.7546 114.491 65.2045 113.294C65.6633 112.089 65.8927 110.748 65.8927 109.273C65.8927 107.816 65.6678 106.502 65.218 105.333C64.7771 104.154 64.1069 103.223 63.2073 102.539C62.3167 101.847 61.1966 101.5 59.8472 101.5C58.5518 101.5 57.4632 101.829 56.5816 102.485C55.7 103.133 55.0342 104.042 54.5844 105.211C54.1346 106.372 53.9097 107.726 53.9097 109.273ZM73.9353 119.637V98.9094H77.012V102.04H77.2279C77.6057 101.015 78.2894 100.182 79.279 99.5437C80.2686 98.9049 81.3841 98.5856 82.6256 98.5856C82.8595 98.5856 83.1519 98.5901 83.5028 98.5991C83.8536 98.6081 84.119 98.6216 84.2989 98.6396V101.878C84.191 101.851 83.9436 101.811 83.5567 101.757C83.1789 101.694 82.7786 101.662 82.3557 101.662C81.3482 101.662 80.4485 101.874 79.6569 102.297C78.8742 102.71 78.2535 103.286 77.7947 104.024C77.3448 104.752 77.1199 105.585 77.1199 106.52V119.637H73.9353ZM95.8635 120.069C93.9923 120.069 92.3505 119.623 90.9381 118.733C89.5347 117.842 88.4372 116.596 87.6455 114.995C86.8628 113.393 86.4715 111.522 86.4715 109.381C86.4715 107.222 86.8628 105.337 87.6455 103.727C88.4372 102.117 89.5347 100.866 90.9381 99.9755C92.3505 99.0849 93.9923 98.6396 95.8635 98.6396C97.7348 98.6396 99.3721 99.0849 100.775 99.9755C102.188 100.866 103.285 102.117 104.068 103.727C104.86 105.337 105.256 107.222 105.256 109.381C105.256 111.522 104.86 113.393 104.068 114.995C103.285 116.596 102.188 117.842 100.775 118.733C99.3721 119.623 97.7348 120.069 95.8635 120.069ZM95.8635 117.208C97.2849 117.208 98.4545 116.843 99.3721 116.115C100.29 115.386 100.969 114.428 101.41 113.24C101.851 112.053 102.071 110.766 102.071 109.381C102.071 107.996 101.851 106.705 101.41 105.508C100.969 104.312 100.29 103.345 99.3721 102.607C98.4545 101.869 97.2849 101.5 95.8635 101.5C94.4421 101.5 93.2726 101.869 92.355 102.607C91.4374 103.345 90.7582 104.312 90.3174 105.508C89.8766 106.705 89.6562 107.996 89.6562 109.381C89.6562 110.766 89.8766 112.053 90.3174 113.24C90.7582 114.428 91.4374 115.386 92.355 116.115C93.2726 116.843 94.4421 117.208 95.8635 117.208ZM126.324 98.9094L118.659 119.637H115.42L107.755 98.9094H111.21L116.932 115.426H117.147L122.869 98.9094H126.324ZM138.475 120.069C136.478 120.069 134.755 119.628 133.307 118.746C131.868 117.855 130.756 116.614 129.974 115.022C129.2 113.42 128.813 111.558 128.813 109.435C128.813 107.312 129.2 105.441 129.974 103.821C130.756 102.193 131.845 100.925 133.239 100.016C134.643 99.0984 136.28 98.6396 138.151 98.6396C139.231 98.6396 140.297 98.8195 141.35 99.1793C142.402 99.5392 143.36 100.124 144.224 100.934C145.087 101.734 145.776 102.796 146.288 104.118C146.801 105.441 147.058 107.069 147.058 109.003V110.353H131.08V107.6H143.819C143.819 106.43 143.585 105.387 143.117 104.469C142.658 103.551 142.002 102.827 141.147 102.297C140.301 101.766 139.303 101.5 138.151 101.5C136.883 101.5 135.785 101.815 134.859 102.445C133.941 103.066 133.235 103.875 132.74 104.874C132.245 105.873 131.998 106.943 131.998 108.086V109.921C131.998 111.486 132.268 112.813 132.808 113.902C133.356 114.981 134.117 115.804 135.088 116.371C136.06 116.929 137.189 117.208 138.475 117.208C139.312 117.208 140.068 117.091 140.742 116.857C141.426 116.614 142.015 116.254 142.51 115.777C143.005 115.292 143.387 114.689 143.657 113.969L146.734 114.833C146.41 115.876 145.866 116.794 145.101 117.586C144.336 118.368 143.392 118.98 142.267 119.421C141.143 119.853 139.879 120.069 138.475 120.069ZM167.286 119.637L160.97 98.9094H164.317L168.797 114.779H169.013L173.439 98.9094H176.84L181.212 114.725H181.428L185.908 98.9094H189.254L182.939 119.637H179.808L175.274 103.713H174.95L170.416 119.637H167.286ZM196.649 107.168V119.637H193.465V92.0004H196.649V102.148H196.919C197.405 101.078 198.134 100.227 199.105 99.5977C200.086 98.9589 201.39 98.6396 203.019 98.6396C204.431 98.6396 205.668 98.9229 206.729 99.4897C207.791 100.047 208.614 100.907 209.199 102.067C209.793 103.219 210.09 104.685 210.09 106.466V119.637H206.905V106.682C206.905 105.036 206.478 103.763 205.623 102.863C204.777 101.955 203.603 101.5 202.101 101.5C201.057 101.5 200.122 101.721 199.294 102.162C198.475 102.602 197.828 103.246 197.351 104.091C196.883 104.937 196.649 105.962 196.649 107.168ZM222.015 120.123C220.702 120.123 219.51 119.875 218.439 119.38C217.369 118.877 216.518 118.152 215.889 117.208C215.259 116.254 214.944 115.103 214.944 113.753C214.944 112.566 215.178 111.603 215.646 110.865C216.114 110.119 216.739 109.534 217.522 109.111C218.304 108.688 219.168 108.373 220.112 108.167C221.066 107.951 222.024 107.78 222.987 107.654C224.246 107.492 225.267 107.37 226.05 107.289C226.842 107.199 227.417 107.051 227.777 106.844C228.146 106.637 228.331 106.277 228.331 105.765V105.657C228.331 104.325 227.966 103.291 227.237 102.553C226.518 101.815 225.425 101.446 223.958 101.446C222.438 101.446 221.246 101.779 220.382 102.445C219.519 103.111 218.911 103.821 218.561 104.577L215.538 103.498C216.078 102.238 216.797 101.257 217.697 100.556C218.606 99.8451 219.595 99.3503 220.666 99.0714C221.745 98.7835 222.807 98.6396 223.85 98.6396C224.516 98.6396 225.281 98.7205 226.144 98.8825C227.017 99.0354 227.858 99.3548 228.668 99.8406C229.487 100.326 230.166 101.06 230.706 102.04C231.245 103.021 231.515 104.334 231.515 105.98V119.637H228.331V116.83H228.169C227.953 117.28 227.593 117.761 227.089 118.274C226.585 118.787 225.915 119.223 225.078 119.583C224.242 119.943 223.221 120.123 222.015 120.123ZM222.501 117.262C223.76 117.262 224.822 117.014 225.686 116.52C226.558 116.025 227.215 115.386 227.656 114.603C228.106 113.821 228.331 112.998 228.331 112.134V109.219C228.196 109.381 227.899 109.529 227.44 109.664C226.99 109.79 226.468 109.903 225.875 110.002C225.29 110.092 224.719 110.173 224.161 110.245C223.612 110.308 223.167 110.362 222.825 110.407C221.997 110.515 221.224 110.69 220.504 110.933C219.793 111.167 219.217 111.522 218.777 111.999C218.345 112.467 218.129 113.105 218.129 113.915C218.129 115.022 218.538 115.858 219.357 116.425C220.184 116.983 221.233 117.262 222.501 117.262ZM246.342 98.9094V101.608H235.601V98.9094H246.342ZM238.731 93.9435H241.916V113.699C241.916 114.599 242.046 115.274 242.307 115.723C242.577 116.164 242.919 116.461 243.333 116.614C243.756 116.758 244.201 116.83 244.669 116.83C245.02 116.83 245.307 116.812 245.532 116.776C245.757 116.731 245.937 116.695 246.072 116.668L246.72 119.529C246.504 119.61 246.203 119.691 245.816 119.772C245.429 119.862 244.939 119.907 244.345 119.907C243.445 119.907 242.564 119.713 241.7 119.326C240.845 118.94 240.135 118.35 239.568 117.559C239.01 116.767 238.731 115.768 238.731 114.563V93.9435ZM263.871 127.409C263.331 127.409 262.85 127.364 262.427 127.275C262.004 127.194 261.712 127.113 261.55 127.032L262.36 124.225C263.133 124.423 263.817 124.495 264.411 124.441C265.005 124.387 265.531 124.121 265.99 123.645C266.458 123.177 266.885 122.417 267.272 121.364L267.866 119.745L260.201 98.9094H263.655L269.377 115.426H269.593L275.314 98.9094H278.769L269.971 122.659C269.575 123.73 269.084 124.616 268.5 125.318C267.915 126.029 267.236 126.555 266.462 126.897C265.697 127.239 264.834 127.409 263.871 127.409ZM290.651 120.069C288.779 120.069 287.138 119.623 285.725 118.733C284.322 117.842 283.224 116.596 282.433 114.995C281.65 113.393 281.259 111.522 281.259 109.381C281.259 107.222 281.65 105.337 282.433 103.727C283.224 102.117 284.322 100.866 285.725 99.9755C287.138 99.0849 288.779 98.6396 290.651 98.6396C292.522 98.6396 294.159 99.0849 295.563 99.9755C296.975 100.866 298.073 102.117 298.855 103.727C299.647 105.337 300.043 107.222 300.043 109.381C300.043 111.522 299.647 113.393 298.855 114.995C298.073 116.596 296.975 117.842 295.563 118.733C294.159 119.623 292.522 120.069 290.651 120.069ZM290.651 117.208C292.072 117.208 293.242 116.843 294.159 116.115C295.077 115.386 295.756 114.428 296.197 113.24C296.638 112.053 296.858 110.766 296.858 109.381C296.858 107.996 296.638 106.705 296.197 105.508C295.756 104.312 295.077 103.345 294.159 102.607C293.242 101.869 292.072 101.5 290.651 101.5C289.229 101.5 288.06 101.869 287.142 102.607C286.225 103.345 285.545 104.312 285.104 105.508C284.664 106.705 284.443 107.996 284.443 109.381C284.443 110.766 284.664 112.053 285.104 113.24C285.545 114.428 286.225 115.386 287.142 116.115C288.06 116.843 289.229 117.208 290.651 117.208ZM317.967 111.162V98.9094H321.151V119.637H317.967V116.128H317.751C317.265 117.181 316.509 118.076 315.484 118.814C314.458 119.542 313.163 119.907 311.597 119.907C310.302 119.907 309.15 119.623 308.143 119.056C307.135 118.481 306.343 117.617 305.768 116.466C305.192 115.305 304.904 113.843 304.904 112.08V98.9094H308.089V111.864C308.089 113.375 308.512 114.581 309.357 115.48C310.212 116.38 311.3 116.83 312.623 116.83C313.414 116.83 314.22 116.627 315.038 116.223C315.866 115.818 316.559 115.197 317.116 114.36C317.683 113.524 317.967 112.458 317.967 111.162ZM326.984 119.637V98.9094H330.061V102.04H330.277C330.655 101.015 331.338 100.182 332.328 99.5437C333.317 98.9049 334.433 98.5856 335.674 98.5856C335.908 98.5856 336.201 98.5901 336.552 98.5991C336.902 98.6081 337.168 98.6216 337.348 98.6396V101.878C337.24 101.851 336.992 101.811 336.606 101.757C336.228 101.694 335.827 101.662 335.405 101.662C334.397 101.662 333.497 101.874 332.706 102.297C331.923 102.71 331.302 103.286 330.843 104.024C330.394 104.752 330.169 105.585 330.169 106.52V119.637H326.984ZM357.91 120.123C356.596 120.123 355.404 119.875 354.334 119.38C353.263 118.877 352.413 118.152 351.783 117.208C351.154 116.254 350.839 115.103 350.839 113.753C350.839 112.566 351.073 111.603 351.54 110.865C352.008 110.119 352.633 109.534 353.416 109.111C354.199 108.688 355.062 108.373 356.007 108.167C356.961 107.951 357.919 107.78 358.881 107.654C360.141 107.492 361.162 107.37 361.945 107.289C362.736 107.199 363.312 107.051 363.672 106.844C364.041 106.637 364.225 106.277 364.225 105.765V105.657C364.225 104.325 363.861 103.291 363.132 102.553C362.412 101.815 361.319 101.446 359.853 101.446C358.333 101.446 357.141 101.779 356.277 102.445C355.413 103.111 354.806 103.821 354.455 104.577L351.432 103.498C351.972 102.238 352.692 101.257 353.592 100.556C354.5 99.8451 355.49 99.3503 356.56 99.0714C357.64 98.7835 358.701 98.6396 359.745 98.6396C360.411 98.6396 361.175 98.7205 362.039 98.8825C362.912 99.0354 363.753 99.3548 364.562 99.8406C365.381 100.326 366.06 101.06 366.6 102.04C367.14 103.021 367.41 104.334 367.41 105.98V119.637H364.225V116.83H364.063C363.847 117.28 363.487 117.761 362.984 118.274C362.48 118.787 361.81 119.223 360.973 119.583C360.136 119.943 359.115 120.123 357.91 120.123ZM358.396 117.262C359.655 117.262 360.717 117.014 361.58 116.52C362.453 116.025 363.11 115.386 363.55 114.603C364 113.821 364.225 112.998 364.225 112.134V109.219C364.09 109.381 363.793 109.529 363.334 109.664C362.885 109.79 362.363 109.903 361.769 110.002C361.184 110.092 360.613 110.173 360.055 110.245C359.507 110.308 359.061 110.362 358.719 110.407C357.892 110.515 357.118 110.69 356.398 110.933C355.688 111.167 355.112 111.522 354.671 111.999C354.239 112.467 354.023 113.105 354.023 113.915C354.023 115.022 354.433 115.858 355.251 116.425C356.079 116.983 357.127 117.262 358.396 117.262ZM381.589 127.841C380.051 127.841 378.728 127.643 377.622 127.248C376.515 126.861 375.593 126.348 374.855 125.709C374.127 125.079 373.546 124.405 373.114 123.685L375.651 121.904C375.939 122.282 376.304 122.713 376.744 123.199C377.185 123.694 377.788 124.121 378.553 124.481C379.326 124.85 380.338 125.034 381.589 125.034C383.262 125.034 384.643 124.63 385.732 123.82C386.82 123.01 387.364 121.742 387.364 120.015V115.804H387.095C386.861 116.182 386.528 116.65 386.096 117.208C385.673 117.757 385.061 118.247 384.261 118.679C383.469 119.101 382.399 119.313 381.049 119.313C379.376 119.313 377.873 118.917 376.542 118.125C375.22 117.334 374.171 116.182 373.398 114.671C372.633 113.159 372.251 111.324 372.251 109.165C372.251 107.042 372.624 105.193 373.371 103.619C374.118 102.036 375.157 100.812 376.488 99.9485C377.819 99.0759 379.358 98.6396 381.103 98.6396C382.453 98.6396 383.523 98.8645 384.315 99.3143C385.115 99.7551 385.727 100.259 386.15 100.826C386.582 101.383 386.915 101.842 387.149 102.202H387.472V98.9094H390.549V120.23C390.549 122.012 390.144 123.46 389.335 124.576C388.534 125.7 387.454 126.523 386.096 127.045C384.747 127.576 383.244 127.841 381.589 127.841ZM381.481 116.452C382.758 116.452 383.838 116.16 384.72 115.575C385.601 114.99 386.271 114.149 386.73 113.051C387.189 111.954 387.418 110.641 387.418 109.111C387.418 107.618 387.194 106.3 386.744 105.157C386.294 104.015 385.628 103.12 384.747 102.472C383.865 101.824 382.776 101.5 381.481 101.5C380.131 101.5 379.007 101.842 378.107 102.526C377.217 103.21 376.546 104.127 376.097 105.279C375.656 106.43 375.435 107.708 375.435 109.111C375.435 110.551 375.66 111.824 376.11 112.93C376.569 114.028 377.244 114.891 378.134 115.521C379.034 116.142 380.149 116.452 381.481 116.452ZM405.069 120.069C403.072 120.069 401.349 119.628 399.901 118.746C398.461 117.855 397.35 116.614 396.568 115.022C395.794 113.42 395.407 111.558 395.407 109.435C395.407 107.312 395.794 105.441 396.568 103.821C397.35 102.193 398.439 100.925 399.833 100.016C401.237 99.0984 402.874 98.6396 404.745 98.6396C405.825 98.6396 406.891 98.8195 407.943 99.1793C408.996 99.5392 409.954 100.124 410.818 100.934C411.681 101.734 412.369 102.796 412.882 104.118C413.395 105.441 413.651 107.069 413.651 109.003V110.353H397.674V107.6H410.413C410.413 106.43 410.179 105.387 409.711 104.469C409.252 103.551 408.595 102.827 407.741 102.297C406.895 101.766 405.897 101.5 404.745 101.5C403.477 101.5 402.379 101.815 401.453 102.445C400.535 103.066 399.829 103.875 399.334 104.874C398.839 105.873 398.592 106.943 398.592 108.086V109.921C398.592 111.486 398.862 112.813 399.401 113.902C399.95 114.981 400.71 115.804 401.682 116.371C402.653 116.929 403.783 117.208 405.069 117.208C405.906 117.208 406.661 117.091 407.336 116.857C408.02 116.614 408.609 116.254 409.104 115.777C409.599 115.292 409.981 114.689 410.251 113.969L413.328 114.833C413.004 115.876 412.459 116.794 411.695 117.586C410.93 118.368 409.985 118.98 408.861 119.421C407.736 119.853 406.472 120.069 405.069 120.069ZM421.68 107.168V119.637H418.496V98.9094H421.573V102.148H421.842C422.328 101.096 423.066 100.25 424.055 99.6112C425.045 98.9634 426.323 98.6396 427.888 98.6396C429.291 98.6396 430.519 98.9274 431.572 99.5032C432.624 100.07 433.443 100.934 434.028 102.094C434.613 103.246 434.905 104.703 434.905 106.466V119.637H431.72V106.682C431.72 105.054 431.297 103.785 430.452 102.877C429.606 101.959 428.446 101.5 426.97 101.5C425.954 101.5 425.045 101.721 424.244 102.162C423.453 102.602 422.828 103.246 422.369 104.091C421.91 104.937 421.68 105.962 421.68 107.168ZM449.739 98.9094V101.608H438.997V98.9094H449.739ZM442.128 93.9435H445.312V113.699C445.312 114.599 445.443 115.274 445.704 115.723C445.974 116.164 446.315 116.461 446.729 116.614C447.152 116.758 447.597 116.83 448.065 116.83C448.416 116.83 448.704 116.812 448.929 116.776C449.154 116.731 449.334 116.695 449.469 116.668L450.116 119.529C449.9 119.61 449.599 119.691 449.212 119.772C448.825 119.862 448.335 119.907 447.741 119.907C446.842 119.907 445.96 119.713 445.097 119.326C444.242 118.94 443.531 118.35 442.964 117.559C442.407 116.767 442.128 115.768 442.128 114.563V93.9435ZM468.84 103.551L465.979 104.361C465.799 103.884 465.534 103.421 465.183 102.971C464.841 102.512 464.373 102.135 463.779 101.838C463.186 101.541 462.425 101.392 461.499 101.392C460.23 101.392 459.173 101.685 458.328 102.27C457.491 102.845 457.073 103.578 457.073 104.469C457.073 105.261 457.361 105.886 457.936 106.345C458.512 106.804 459.412 107.186 460.635 107.492L463.712 108.248C465.565 108.697 466.946 109.386 467.855 110.312C468.763 111.23 469.218 112.413 469.218 113.861C469.218 115.049 468.876 116.11 468.192 117.046C467.517 117.981 466.573 118.719 465.358 119.259C464.144 119.799 462.731 120.069 461.121 120.069C459.007 120.069 457.257 119.61 455.872 118.692C454.486 117.775 453.609 116.434 453.24 114.671L456.263 113.915C456.551 115.031 457.095 115.867 457.896 116.425C458.706 116.983 459.763 117.262 461.067 117.262C462.551 117.262 463.73 116.947 464.603 116.317C465.484 115.678 465.925 114.914 465.925 114.023C465.925 113.303 465.673 112.701 465.169 112.215C464.666 111.72 463.892 111.351 462.848 111.108L459.394 110.299C457.496 109.849 456.101 109.152 455.21 108.207C454.329 107.253 453.888 106.061 453.888 104.631C453.888 103.462 454.216 102.427 454.873 101.527C455.539 100.628 456.443 99.9215 457.585 99.4087C458.737 98.896 460.041 98.6396 461.499 98.6396C463.55 98.6396 465.16 99.0894 466.33 99.989C467.508 100.889 468.345 102.076 468.84 103.551ZM492.526 120.069C490.798 120.069 489.274 119.632 487.951 118.76C486.629 117.878 485.594 116.636 484.847 115.035C484.101 113.425 483.727 111.522 483.727 109.327C483.727 107.15 484.101 105.261 484.847 103.659C485.594 102.058 486.633 100.821 487.965 99.9485C489.296 99.0759 490.834 98.6396 492.58 98.6396C493.929 98.6396 494.995 98.8645 495.778 99.3143C496.569 99.7551 497.172 100.259 497.586 100.826C498.009 101.383 498.337 101.842 498.571 102.202H498.841V92.0004H502.026V119.637H498.949V116.452H498.571C498.337 116.83 498.004 117.307 497.573 117.882C497.141 118.449 496.524 118.958 495.724 119.407C494.923 119.848 493.857 120.069 492.526 120.069ZM492.957 117.208C494.235 117.208 495.314 116.875 496.196 116.209C497.078 115.534 497.748 114.603 498.207 113.416C498.666 112.219 498.895 110.838 498.895 109.273C498.895 107.726 498.67 106.372 498.22 105.211C497.77 104.042 497.105 103.133 496.223 102.485C495.341 101.829 494.253 101.5 492.957 101.5C491.608 101.5 490.484 101.847 489.584 102.539C488.693 103.223 488.023 104.154 487.573 105.333C487.132 106.502 486.912 107.816 486.912 109.273C486.912 110.748 487.137 112.089 487.587 113.294C488.046 114.491 488.72 115.444 489.611 116.155C490.511 116.857 491.626 117.208 492.957 117.208ZM516.721 120.069C514.85 120.069 513.208 119.623 511.796 118.733C510.392 117.842 509.295 116.596 508.503 114.995C507.72 113.393 507.329 111.522 507.329 109.381C507.329 107.222 507.72 105.337 508.503 103.727C509.295 102.117 510.392 100.866 511.796 99.9755C513.208 99.0849 514.85 98.6396 516.721 98.6396C518.592 98.6396 520.229 99.0849 521.633 99.9755C523.045 100.866 524.143 102.117 524.926 103.727C525.717 105.337 526.113 107.222 526.113 109.381C526.113 111.522 525.717 113.393 524.926 114.995C524.143 116.596 523.045 117.842 521.633 118.733C520.229 119.623 518.592 120.069 516.721 120.069ZM516.721 117.208C518.142 117.208 519.312 116.843 520.229 116.115C521.147 115.386 521.826 114.428 522.267 113.24C522.708 112.053 522.928 110.766 522.928 109.381C522.928 107.996 522.708 106.705 522.267 105.508C521.826 104.312 521.147 103.345 520.229 102.607C519.312 101.869 518.142 101.5 516.721 101.5C515.3 101.5 514.13 101.869 513.212 102.607C512.295 103.345 511.616 104.312 511.175 105.508C510.734 106.705 510.514 107.996 510.514 109.381C510.514 110.766 510.734 112.053 511.175 113.24C511.616 114.428 512.295 115.386 513.212 116.115C514.13 116.843 515.3 117.208 516.721 117.208ZM535.724 115.858L535.508 117.316C535.355 118.341 535.122 119.439 534.807 120.608C534.501 121.778 534.181 122.88 533.849 123.914C533.516 124.949 533.241 125.772 533.025 126.384H530.597C530.713 125.808 530.866 125.048 531.055 124.103C531.244 123.159 531.433 122.102 531.622 120.932C531.82 119.772 531.982 118.584 532.108 117.37L532.27 115.858H535.724ZM557.008 119.637L550.693 98.9094H554.04L558.52 114.779H558.736L563.162 98.9094H566.562L570.934 114.725H571.15L575.63 98.9094H578.977L572.662 119.637H569.531L564.997 103.713H564.673L560.139 119.637H557.008ZM583.187 119.637V98.9094H586.372V119.637H583.187ZM584.807 95.4549C584.186 95.4549 583.651 95.2435 583.201 94.8207C582.76 94.3978 582.54 93.8896 582.54 93.2958C582.54 92.7021 582.76 92.1938 583.201 91.771C583.651 91.3481 584.186 91.1367 584.807 91.1367C585.427 91.1367 585.958 91.3481 586.399 91.771C586.849 92.1938 587.074 92.7021 587.074 93.2958C587.074 93.8896 586.849 94.3978 586.399 94.8207C585.958 95.2435 585.427 95.4549 584.807 95.4549ZM601.219 98.9094V101.608H590.478V98.9094H601.219ZM593.608 93.9435H596.793V113.699C596.793 114.599 596.923 115.274 597.184 115.723C597.454 116.164 597.796 116.461 598.21 116.614C598.633 116.758 599.078 116.83 599.546 116.83C599.897 116.83 600.184 116.812 600.409 116.776C600.634 116.731 600.814 116.695 600.949 116.668L601.597 119.529C601.381 119.61 601.08 119.691 600.693 119.772C600.306 119.862 599.816 119.907 599.222 119.907C598.322 119.907 597.441 119.713 596.577 119.326C595.722 118.94 595.012 118.35 594.445 117.559C593.887 116.767 593.608 115.768 593.608 114.563V93.9435ZM609.639 107.168V119.637H606.455V92.0004H609.639V102.148H609.909C610.395 101.078 611.124 100.227 612.095 99.5977C613.076 98.9589 614.38 98.6396 616.009 98.6396C617.421 98.6396 618.658 98.9229 619.72 99.4897C620.781 100.047 621.604 100.907 622.189 102.067C622.783 103.219 623.08 104.685 623.08 106.466V119.637H619.895V106.682C619.895 105.036 619.468 103.763 618.613 102.863C617.768 101.955 616.594 101.5 615.091 101.5C614.048 101.5 613.112 101.721 612.284 102.162C611.466 102.602 610.818 103.246 610.341 104.091C609.873 104.937 609.639 105.962 609.639 107.168ZM637.326 120.069C635.455 120.069 633.813 119.623 632.401 118.733C630.998 117.842 629.9 116.596 629.108 114.995C628.326 113.393 627.934 111.522 627.934 109.381C627.934 107.222 628.326 105.337 629.108 103.727C629.9 102.117 630.998 100.866 632.401 99.9755C633.813 99.0849 635.455 98.6396 637.326 98.6396C639.198 98.6396 640.835 99.0849 642.238 99.9755C643.651 100.866 644.748 102.117 645.531 103.727C646.323 105.337 646.718 107.222 646.718 109.381C646.718 111.522 646.323 113.393 645.531 114.995C644.748 116.596 643.651 117.842 642.238 118.733C640.835 119.623 639.198 120.069 637.326 120.069ZM637.326 117.208C638.748 117.208 639.917 116.843 640.835 116.115C641.753 115.386 642.432 114.428 642.873 113.24C643.313 112.053 643.534 110.766 643.534 109.381C643.534 107.996 643.313 106.705 642.873 105.508C642.432 104.312 641.753 103.345 640.835 102.607C639.917 101.869 638.748 101.5 637.326 101.5C635.905 101.5 634.736 101.869 633.818 102.607C632.9 103.345 632.221 104.312 631.78 105.508C631.339 106.705 631.119 107.996 631.119 109.381C631.119 110.766 631.339 112.053 631.78 113.24C632.221 114.428 632.9 115.386 633.818 116.115C634.736 116.843 635.905 117.208 637.326 117.208ZM664.642 111.162V98.9094H667.827V119.637H664.642V116.128H664.426C663.941 117.181 663.185 118.076 662.159 118.814C661.134 119.542 659.838 119.907 658.273 119.907C656.978 119.907 655.826 119.623 654.818 119.056C653.811 118.481 653.019 117.617 652.443 116.466C651.868 115.305 651.58 113.843 651.58 112.08V98.9094H654.764V111.864C654.764 113.375 655.187 114.581 656.033 115.48C656.888 116.38 657.976 116.83 659.299 116.83C660.09 116.83 660.895 116.627 661.714 116.223C662.542 115.818 663.234 115.197 663.792 114.36C664.359 113.524 664.642 112.458 664.642 111.162ZM682.674 98.9094V101.608H671.933V98.9094H682.674ZM675.063 93.9435H678.248V113.699C678.248 114.599 678.378 115.274 678.639 115.723C678.909 116.164 679.251 116.461 679.665 116.614C680.088 116.758 680.533 116.83 681.001 116.83C681.352 116.83 681.64 116.812 681.864 116.776C682.089 116.731 682.269 116.695 682.404 116.668L683.052 119.529C682.836 119.61 682.535 119.691 682.148 119.772C681.761 119.862 681.271 119.907 680.677 119.907C679.777 119.907 678.896 119.713 678.032 119.326C677.177 118.94 676.467 118.35 675.9 117.559C675.342 116.767 675.063 115.768 675.063 114.563V93.9435ZM706.842 120.069C704.845 120.069 703.122 119.628 701.674 118.746C700.235 117.855 699.124 116.614 698.341 115.022C697.567 113.42 697.18 111.558 697.18 109.435C697.18 107.312 697.567 105.441 698.341 103.821C699.124 102.193 700.212 100.925 701.607 100.016C703.01 99.0984 704.647 98.6396 706.519 98.6396C707.598 98.6396 708.664 98.8195 709.717 99.1793C710.769 99.5392 711.727 100.124 712.591 100.934C713.455 101.734 714.143 102.796 714.656 104.118C715.168 105.441 715.425 107.069 715.425 109.003V110.353H699.448V107.6H712.186C712.186 106.43 711.952 105.387 711.484 104.469C711.026 103.551 710.369 102.827 709.514 102.297C708.669 101.766 707.67 101.5 706.519 101.5C705.25 101.5 704.153 101.815 703.226 102.445C702.308 103.066 701.602 103.875 701.107 104.874C700.613 105.873 700.365 106.943 700.365 108.086V109.921C700.365 111.486 700.635 112.813 701.175 113.902C701.724 114.981 702.484 115.804 703.455 116.371C704.427 116.929 705.556 117.208 706.842 117.208C707.679 117.208 708.435 117.091 709.109 116.857C709.793 116.614 710.382 116.254 710.877 115.777C711.372 115.292 711.754 114.689 712.024 113.969L715.101 114.833C714.777 115.876 714.233 116.794 713.468 117.586C712.703 118.368 711.759 118.98 710.634 119.421C709.51 119.853 708.246 120.069 706.842 120.069ZM736.587 98.9094L728.922 119.637H725.684L718.019 98.9094H721.474L727.195 115.426H727.411L733.133 98.9094H736.587ZM748.739 120.069C746.742 120.069 745.019 119.628 743.571 118.746C742.131 117.855 741.02 116.614 740.237 115.022C739.464 113.42 739.077 111.558 739.077 109.435C739.077 107.312 739.464 105.441 740.237 103.821C741.02 102.193 742.109 100.925 743.503 100.016C744.907 99.0984 746.544 98.6396 748.415 98.6396C749.495 98.6396 750.561 98.8195 751.613 99.1793C752.666 99.5392 753.624 100.124 754.487 100.934C755.351 101.734 756.039 102.796 756.552 104.118C757.065 105.441 757.321 107.069 757.321 109.003V110.353H741.344V107.6H754.083C754.083 106.43 753.849 105.387 753.381 104.469C752.922 103.551 752.265 102.827 751.411 102.297C750.565 101.766 749.567 101.5 748.415 101.5C747.147 101.5 746.049 101.815 745.122 102.445C744.205 103.066 743.499 103.875 743.004 104.874C742.509 105.873 742.262 106.943 742.262 108.086V109.921C742.262 111.486 742.532 112.813 743.071 113.902C743.62 114.981 744.38 115.804 745.352 116.371C746.323 116.929 747.452 117.208 748.739 117.208C749.576 117.208 750.331 117.091 751.006 116.857C751.69 116.614 752.279 116.254 752.774 115.777C753.268 115.292 753.651 114.689 753.921 113.969L756.997 114.833C756.674 115.876 756.129 116.794 755.365 117.586C754.6 118.368 753.655 118.98 752.531 119.421C751.406 119.853 750.142 120.069 748.739 120.069ZM762.166 119.637V98.9094H765.242V102.04H765.458C765.836 101.015 766.52 100.182 767.509 99.5437C768.499 98.9049 769.615 98.5856 770.856 98.5856C771.09 98.5856 771.382 98.5901 771.733 98.5991C772.084 98.6081 772.349 98.6216 772.529 98.6396V101.878C772.421 101.851 772.174 101.811 771.787 101.757C771.409 101.694 771.009 101.662 770.586 101.662C769.579 101.662 768.679 101.874 767.887 102.297C767.105 102.71 766.484 103.286 766.025 104.024C765.575 104.752 765.35 105.585 765.35 106.52V119.637H762.166ZM172.268 153.168V165.637H169.084V138H172.268V148.148H172.538C173.024 147.078 173.753 146.227 174.724 145.598C175.705 144.959 177.009 144.64 178.638 144.64C180.05 144.64 181.287 144.923 182.349 145.49C183.41 146.047 184.233 146.907 184.818 148.067C185.412 149.219 185.709 150.685 185.709 152.466V165.637H182.524V152.682C182.524 151.036 182.097 149.763 181.242 148.863C180.396 147.955 179.222 147.5 177.72 147.5C176.677 147.5 175.741 147.721 174.913 148.162C174.095 148.602 173.447 149.246 172.97 150.091C172.502 150.937 172.268 151.962 172.268 153.168ZM197.634 166.123C196.321 166.123 195.129 165.875 194.058 165.38C192.988 164.877 192.138 164.152 191.508 163.208C190.878 162.254 190.563 161.103 190.563 159.753C190.563 158.566 190.797 157.603 191.265 156.865C191.733 156.119 192.358 155.534 193.141 155.111C193.923 154.688 194.787 154.373 195.732 154.167C196.685 153.951 197.643 153.78 198.606 153.654C199.865 153.492 200.886 153.37 201.669 153.289C202.461 153.199 203.037 153.051 203.396 152.844C203.765 152.637 203.95 152.277 203.95 151.765V151.657C203.95 150.325 203.585 149.291 202.857 148.553C202.137 147.815 201.044 147.446 199.578 147.446C198.057 147.446 196.865 147.779 196.002 148.445C195.138 149.111 194.531 149.821 194.18 150.577L191.157 149.498C191.697 148.238 192.417 147.257 193.316 146.556C194.225 145.845 195.214 145.35 196.285 145.071C197.364 144.783 198.426 144.64 199.47 144.64C200.135 144.64 200.9 144.721 201.764 144.882C202.636 145.035 203.477 145.355 204.287 145.841C205.106 146.326 205.785 147.06 206.325 148.04C206.864 149.021 207.134 150.334 207.134 151.98V165.637H203.95V162.83H203.788C203.572 163.28 203.212 163.761 202.708 164.274C202.204 164.787 201.534 165.223 200.698 165.583C199.861 165.943 198.84 166.123 197.634 166.123ZM198.12 163.262C199.38 163.262 200.441 163.014 201.305 162.52C202.177 162.025 202.834 161.386 203.275 160.603C203.725 159.821 203.95 158.998 203.95 158.134V155.219C203.815 155.381 203.518 155.529 203.059 155.664C202.609 155.79 202.087 155.903 201.494 156.002C200.909 156.092 200.338 156.173 199.78 156.245C199.231 156.308 198.786 156.362 198.444 156.407C197.616 156.515 196.843 156.69 196.123 156.933C195.412 157.167 194.836 157.522 194.396 157.999C193.964 158.467 193.748 159.105 193.748 159.915C193.748 161.022 194.157 161.858 194.976 162.425C195.804 162.983 196.852 163.262 198.12 163.262ZM216.132 153.168V165.637H212.947V144.909H216.024V148.148H216.294C216.779 147.096 217.517 146.25 218.507 145.611C219.496 144.963 220.774 144.64 222.339 144.64C223.742 144.64 224.97 144.927 226.023 145.503C227.076 146.07 227.894 146.934 228.479 148.094C229.064 149.246 229.356 150.703 229.356 152.466V165.637H226.171V152.682C226.171 151.054 225.749 149.785 224.903 148.877C224.057 147.959 222.897 147.5 221.421 147.5C220.405 147.5 219.496 147.721 218.696 148.162C217.904 148.602 217.279 149.246 216.82 150.091C216.361 150.937 216.132 151.962 216.132 153.168ZM243.002 166.069C241.275 166.069 239.75 165.632 238.428 164.76C237.105 163.878 236.071 162.636 235.324 161.035C234.577 159.425 234.204 157.522 234.204 155.327C234.204 153.15 234.577 151.261 235.324 149.659C236.071 148.058 237.11 146.821 238.441 145.949C239.773 145.076 241.311 144.64 243.056 144.64C244.406 144.64 245.472 144.864 246.254 145.314C247.046 145.755 247.649 146.259 248.063 146.826C248.485 147.383 248.814 147.842 249.048 148.202H249.318V138H252.502V165.637H249.426V162.452H249.048C248.814 162.83 248.481 163.307 248.049 163.882C247.617 164.449 247.001 164.958 246.2 165.407C245.4 165.848 244.334 166.069 243.002 166.069ZM243.434 163.208C244.712 163.208 245.791 162.875 246.673 162.209C247.554 161.534 248.225 160.603 248.683 159.416C249.142 158.219 249.372 156.838 249.372 155.273C249.372 153.726 249.147 152.372 248.697 151.211C248.247 150.042 247.581 149.133 246.7 148.485C245.818 147.829 244.729 147.5 243.434 147.5C242.085 147.5 240.96 147.847 240.06 148.539C239.17 149.223 238.5 150.154 238.05 151.333C237.609 152.502 237.389 153.816 237.389 155.273C237.389 156.748 237.613 158.089 238.063 159.294C238.522 160.491 239.197 161.444 240.087 162.155C240.987 162.857 242.103 163.208 243.434 163.208ZM258.777 165.637V144.909H261.962V165.637H258.777ZM260.396 141.455C259.776 141.455 259.24 141.243 258.791 140.821C258.35 140.398 258.129 139.89 258.129 139.296C258.129 138.702 258.35 138.194 258.791 137.771C259.24 137.348 259.776 137.137 260.396 137.137C261.017 137.137 261.548 137.348 261.989 137.771C262.439 138.194 262.663 138.702 262.663 139.296C262.663 139.89 262.439 140.398 261.989 140.821C261.548 141.243 261.017 141.455 260.396 141.455ZM270.979 153.168V165.637H267.795V144.909H270.871V148.148H271.141C271.627 147.096 272.365 146.25 273.354 145.611C274.344 144.963 275.621 144.64 277.187 144.64C278.59 144.64 279.818 144.927 280.871 145.503C281.923 146.07 282.742 146.934 283.327 148.094C283.911 149.246 284.204 150.703 284.204 152.466V165.637H281.019V152.682C281.019 151.054 280.596 149.785 279.751 148.877C278.905 147.959 277.744 147.5 276.269 147.5C275.253 147.5 274.344 147.721 273.543 148.162C272.752 148.602 272.126 149.246 271.668 150.091C271.209 150.937 270.979 151.962 270.979 153.168ZM298.39 173.841C296.851 173.841 295.529 173.643 294.422 173.248C293.316 172.861 292.394 172.348 291.656 171.709C290.927 171.079 290.347 170.405 289.915 169.685L292.452 167.904C292.74 168.282 293.104 168.713 293.545 169.199C293.986 169.694 294.589 170.121 295.353 170.481C296.127 170.85 297.139 171.034 298.39 171.034C300.063 171.034 301.444 170.63 302.532 169.82C303.621 169.01 304.165 167.742 304.165 166.015V161.804H303.895C303.661 162.182 303.329 162.65 302.897 163.208C302.474 163.757 301.862 164.247 301.062 164.679C300.27 165.101 299.199 165.313 297.85 165.313C296.177 165.313 294.674 164.917 293.343 164.125C292.02 163.334 290.972 162.182 290.199 160.671C289.434 159.159 289.052 157.324 289.052 155.165C289.052 153.042 289.425 151.193 290.172 149.619C290.918 148.036 291.957 146.812 293.289 145.949C294.62 145.076 296.159 144.64 297.904 144.64C299.253 144.64 300.324 144.864 301.116 145.314C301.916 145.755 302.528 146.259 302.951 146.826C303.383 147.383 303.715 147.842 303.949 148.202H304.273V144.909H307.35V166.23C307.35 168.012 306.945 169.46 306.135 170.576C305.335 171.7 304.255 172.523 302.897 173.045C301.547 173.576 300.045 173.841 298.39 173.841ZM298.282 162.452C299.559 162.452 300.639 162.16 301.52 161.575C302.402 160.99 303.072 160.149 303.531 159.051C303.99 157.954 304.219 156.641 304.219 155.111C304.219 153.618 303.994 152.3 303.544 151.157C303.095 150.015 302.429 149.12 301.547 148.472C300.666 147.824 299.577 147.5 298.282 147.5C296.932 147.5 295.808 147.842 294.908 148.526C294.017 149.21 293.347 150.127 292.897 151.279C292.457 152.43 292.236 153.708 292.236 155.111C292.236 156.551 292.461 157.824 292.911 158.93C293.37 160.028 294.044 160.891 294.935 161.521C295.835 162.142 296.95 162.452 298.282 162.452ZM332.881 144.909V147.608H322.14V144.909H332.881ZM325.27 139.944H328.455V159.699C328.455 160.599 328.585 161.274 328.846 161.723C329.116 162.164 329.458 162.461 329.872 162.614C330.295 162.758 330.74 162.83 331.208 162.83C331.559 162.83 331.847 162.812 332.071 162.776C332.296 162.731 332.476 162.695 332.611 162.668L333.259 165.529C333.043 165.61 332.742 165.691 332.355 165.772C331.968 165.862 331.478 165.907 330.884 165.907C329.984 165.907 329.103 165.713 328.239 165.326C327.384 164.94 326.674 164.35 326.107 163.559C325.549 162.767 325.27 161.768 325.27 160.563V139.944ZM341.302 153.168V165.637H338.117V138H341.302V148.148H341.571C342.057 147.078 342.786 146.227 343.758 145.598C344.738 144.959 346.043 144.64 347.671 144.64C349.083 144.64 350.32 144.923 351.382 145.49C352.443 146.047 353.267 146.907 353.851 148.067C354.445 149.219 354.742 150.685 354.742 152.466V165.637H351.557V152.682C351.557 151.036 351.13 149.763 350.275 148.863C349.43 147.955 348.256 147.5 346.753 147.5C345.71 147.5 344.774 147.721 343.946 148.162C343.128 148.602 342.48 149.246 342.003 150.091C341.535 150.937 341.302 151.962 341.302 153.168ZM369.258 166.069C367.261 166.069 365.539 165.628 364.09 164.746C362.651 163.855 361.54 162.614 360.757 161.022C359.983 159.42 359.597 157.558 359.597 155.435C359.597 153.312 359.983 151.441 360.757 149.821C361.54 148.193 362.628 146.925 364.023 146.016C365.426 145.098 367.063 144.64 368.935 144.64C370.014 144.64 371.08 144.819 372.133 145.179C373.185 145.539 374.143 146.124 375.007 146.934C375.871 147.734 376.559 148.796 377.072 150.118C377.584 151.441 377.841 153.069 377.841 155.003V156.353H361.864V153.6H374.602C374.602 152.43 374.368 151.387 373.9 150.469C373.442 149.551 372.785 148.827 371.93 148.297C371.085 147.766 370.086 147.5 368.935 147.5C367.666 147.5 366.569 147.815 365.642 148.445C364.724 149.066 364.018 149.875 363.523 150.874C363.029 151.873 362.781 152.943 362.781 154.086V155.921C362.781 157.486 363.051 158.813 363.591 159.902C364.14 160.981 364.9 161.804 365.871 162.371C366.843 162.929 367.972 163.208 369.258 163.208C370.095 163.208 370.851 163.091 371.525 162.857C372.209 162.614 372.798 162.254 373.293 161.777C373.788 161.292 374.17 160.689 374.44 159.969L377.517 160.833C377.193 161.876 376.649 162.794 375.884 163.586C375.119 164.368 374.175 164.98 373.05 165.421C371.926 165.853 370.662 166.069 369.258 166.069ZM382.685 165.637V144.909H385.762V148.148H386.032C386.464 147.042 387.161 146.182 388.123 145.571C389.086 144.95 390.242 144.64 391.592 144.64C392.959 144.64 394.097 144.95 395.006 145.571C395.923 146.182 396.638 147.042 397.151 148.148H397.367C397.898 147.078 398.694 146.227 399.756 145.598C400.817 144.959 402.09 144.64 403.574 144.64C405.428 144.64 406.944 145.22 408.122 146.38C409.301 147.532 409.89 149.327 409.89 151.765V165.637H406.705V151.765C406.705 150.235 406.287 149.142 405.45 148.485C404.614 147.829 403.628 147.5 402.495 147.5C401.038 147.5 399.909 147.941 399.108 148.823C398.307 149.695 397.907 150.802 397.907 152.142V165.637H394.668V151.441C394.668 150.262 394.286 149.313 393.521 148.593C392.757 147.865 391.771 147.5 390.566 147.5C389.738 147.5 388.965 147.721 388.245 148.162C387.534 148.602 386.958 149.214 386.518 149.997C386.086 150.77 385.87 151.666 385.87 152.682V165.637H382.685ZM428.451 173.409C427.911 173.409 427.43 173.364 427.007 173.275C426.585 173.194 426.292 173.113 426.13 173.032L426.94 170.225C427.714 170.423 428.397 170.495 428.991 170.441C429.585 170.387 430.111 170.121 430.57 169.645C431.038 169.177 431.465 168.417 431.852 167.364L432.446 165.745L424.781 144.909H428.235L433.957 161.426H434.173L439.894 144.909H443.349L434.551 168.659C434.155 169.73 433.665 170.616 433.08 171.318C432.495 172.029 431.816 172.555 431.042 172.897C430.277 173.239 429.414 173.409 428.451 173.409ZM455.231 166.069C453.36 166.069 451.718 165.623 450.305 164.733C448.902 163.842 447.804 162.596 447.013 160.995C446.23 159.393 445.839 157.522 445.839 155.381C445.839 153.222 446.23 151.337 447.013 149.727C447.804 148.117 448.902 146.866 450.305 145.975C451.718 145.085 453.36 144.64 455.231 144.64C457.102 144.64 458.739 145.085 460.143 145.975C461.555 146.866 462.653 148.117 463.435 149.727C464.227 151.337 464.623 153.222 464.623 155.381C464.623 157.522 464.227 159.393 463.435 160.995C462.653 162.596 461.555 163.842 460.143 164.733C458.739 165.623 457.102 166.069 455.231 166.069ZM455.231 163.208C456.652 163.208 457.822 162.843 458.739 162.115C459.657 161.386 460.336 160.428 460.777 159.24C461.218 158.053 461.438 156.766 461.438 155.381C461.438 153.996 461.218 152.705 460.777 151.508C460.336 150.312 459.657 149.345 458.739 148.607C457.822 147.869 456.652 147.5 455.231 147.5C453.809 147.5 452.64 147.869 451.722 148.607C450.805 149.345 450.125 150.312 449.685 151.508C449.244 152.705 449.023 153.996 449.023 155.381C449.023 156.766 449.244 158.053 449.685 159.24C450.125 160.428 450.805 161.386 451.722 162.115C452.64 162.843 453.809 163.208 455.231 163.208ZM482.547 157.162V144.909H485.731V165.637H482.547V162.128H482.331C481.845 163.181 481.089 164.076 480.064 164.814C479.038 165.542 477.743 165.907 476.177 165.907C474.882 165.907 473.73 165.623 472.723 165.056C471.715 164.481 470.924 163.617 470.348 162.466C469.772 161.305 469.484 159.843 469.484 158.08V144.909H472.669V157.864C472.669 159.375 473.092 160.581 473.937 161.48C474.792 162.38 475.88 162.83 477.203 162.83C477.995 162.83 478.8 162.627 479.618 162.223C480.446 161.818 481.139 161.197 481.696 160.36C482.263 159.524 482.547 158.458 482.547 157.162ZM491.564 165.637V144.909H494.641V148.04H494.857C495.235 147.015 495.918 146.182 496.908 145.544C497.898 144.905 499.013 144.586 500.255 144.586C500.488 144.586 500.781 144.59 501.132 144.599C501.483 144.608 501.748 144.622 501.928 144.64V147.878C501.82 147.851 501.572 147.811 501.186 147.757C500.808 147.694 500.407 147.662 499.985 147.662C498.977 147.662 498.077 147.874 497.286 148.297C496.503 148.71 495.882 149.286 495.424 150.024C494.974 150.752 494.749 151.585 494.749 152.52V165.637H491.564ZM519.359 158.08L519.305 154.14H519.953L529.021 144.909H532.961L523.299 154.679H523.03L519.359 158.08ZM516.39 165.637V138H519.575V165.637H516.39ZM529.561 165.637L521.464 155.381L523.731 153.168L533.609 165.637H529.561ZM544.897 166.069C542.9 166.069 541.177 165.628 539.729 164.746C538.289 163.855 537.178 162.614 536.396 161.022C535.622 159.42 535.235 157.558 535.235 155.435C535.235 153.312 535.622 151.441 536.396 149.821C537.178 148.193 538.267 146.925 539.661 146.016C541.065 145.098 542.702 144.64 544.573 144.64C545.653 144.64 546.719 144.819 547.771 145.179C548.824 145.539 549.782 146.124 550.646 146.934C551.509 147.734 552.198 148.796 552.71 150.118C553.223 151.441 553.479 153.069 553.479 155.003V156.353H537.502V153.6H550.241C550.241 152.43 550.007 151.387 549.539 150.469C549.08 149.551 548.424 148.827 547.569 148.297C546.723 147.766 545.725 147.5 544.573 147.5C543.305 147.5 542.207 147.815 541.281 148.445C540.363 149.066 539.657 149.875 539.162 150.874C538.667 151.873 538.42 152.943 538.42 154.086V155.921C538.42 157.486 538.69 158.813 539.229 159.902C539.778 160.981 540.538 161.804 541.51 162.371C542.482 162.929 543.611 163.208 544.897 163.208C545.734 163.208 546.489 163.091 547.164 162.857C547.848 162.614 548.437 162.254 548.932 161.777C549.427 161.292 549.809 160.689 550.079 159.969L553.156 160.833C552.832 161.876 552.287 162.794 551.523 163.586C550.758 164.368 549.814 164.98 548.689 165.421C547.564 165.853 546.301 166.069 544.897 166.069ZM559.744 173.409C559.204 173.409 558.723 173.364 558.3 173.275C557.878 173.194 557.585 173.113 557.423 173.032L558.233 170.225C559.007 170.423 559.69 170.495 560.284 170.441C560.878 170.387 561.404 170.121 561.863 169.645C562.331 169.177 562.758 168.417 563.145 167.364L563.739 165.745L556.074 144.909H559.528L565.25 161.426H565.466L571.187 144.909H574.642L565.844 168.659C565.448 169.73 564.958 170.616 564.373 171.318C563.788 172.029 563.109 172.555 562.335 172.897C561.57 173.239 560.707 173.409 559.744 173.409ZM593.527 149.551L590.666 150.361C590.487 149.884 590.221 149.421 589.87 148.971C589.528 148.512 589.061 148.135 588.467 147.838C587.873 147.541 587.113 147.392 586.186 147.392C584.918 147.392 583.861 147.685 583.015 148.27C582.179 148.845 581.76 149.578 581.76 150.469C581.76 151.261 582.048 151.886 582.624 152.345C583.2 152.804 584.099 153.186 585.323 153.492L588.399 154.248C590.253 154.697 591.634 155.386 592.542 156.312C593.451 157.23 593.905 158.413 593.905 159.861C593.905 161.049 593.563 162.11 592.88 163.046C592.205 163.981 591.26 164.719 590.046 165.259C588.831 165.799 587.419 166.069 585.809 166.069C583.694 166.069 581.945 165.61 580.559 164.692C579.174 163.775 578.297 162.434 577.928 160.671L580.951 159.915C581.238 161.031 581.783 161.867 582.583 162.425C583.393 162.983 584.45 163.262 585.755 163.262C587.239 163.262 588.417 162.947 589.29 162.317C590.172 161.678 590.612 160.914 590.612 160.023C590.612 159.303 590.361 158.701 589.857 158.215C589.353 157.72 588.579 157.351 587.536 157.108L584.081 156.299C582.183 155.849 580.789 155.152 579.898 154.207C579.016 153.253 578.576 152.061 578.576 150.631C578.576 149.462 578.904 148.427 579.561 147.527C580.226 146.628 581.13 145.922 582.273 145.409C583.425 144.896 584.729 144.64 586.186 144.64C588.237 144.64 589.848 145.089 591.017 145.989C592.196 146.889 593.032 148.076 593.527 149.551ZM601.02 165.853C600.354 165.853 599.783 165.614 599.306 165.137C598.829 164.661 598.591 164.089 598.591 163.424C598.591 162.758 598.829 162.187 599.306 161.71C599.783 161.233 600.354 160.995 601.02 160.995C601.686 160.995 602.257 161.233 602.734 161.71C603.211 162.187 603.449 162.758 603.449 163.424C603.449 163.864 603.336 164.269 603.112 164.638C602.896 165.007 602.603 165.304 602.234 165.529C601.875 165.745 601.47 165.853 601.02 165.853Z" fill="white"/>
</svg>
